# xmcd
#
# Track frame offsets:
#	150
#	13928
#	28505
#	42338
#	54883
#	68390
#	78447
#	90617
#	103830
#	115835
#	127523
#	138401
#	150641
#	162531
#	175328
#	187851
#	200763
#	211766
#	222458
#	234213
#	245661
#
# Disc length: 3519 seconds
#
# Revision: 2
# Processed by: cddbd v1.5PL3 Copyright (c) Steve Scherf et al.
# Submitted via: EasyCDDAExtractor 5.1.0
#
DISCID=160dbd15
DTITLE=John Lee Hooker - Giant of Blues Disc 1
DYEAR=2002
DGENRE=Blues
TTITLE0=Time is Marchin'
TTITLE1=I'm so worried, Baby
TTITLE2=The road is so rough
TTITLE3=Trouble Blues
TTITLE4=Baby blues
TTITLE5=Dimples
TTITLE6=Everybody Rockin'
TTITLE7=I'm so excited
TTITLE8=Little Wheel
TTITLE9=I love you, Honey
TTITLE10=Maudie
TTITLE11=I'm in the mood
TTITLE12=Boogie chillun
TTITLE13=Hobo Blues
TTITLE14=Crawlin' Kingsnake
TTITLE15=I can't believe
TTITLE16=No shoes
TTITLE17=Dusty road
TTITLE18=Solid sender
TTITLE19=Sunny land
TTITLE20=Sally Mae
EXTD=
EXTT0=
EXTT1=
EXTT2=
EXTT3=
EXTT4=
EXTT5=
EXTT6=
EXTT7=
EXTT8=
EXTT9=
EXTT10=
EXTT11=
EXTT12=
EXTT13=
EXTT14=
EXTT15=
EXTT16=
EXTT17=
EXTT18=
EXTT19=
EXTT20=
PLAYORDER=
